<svg xmlns="http://www.w3.org/2000/svg" viewBox="0 0 445.26 102.73"><defs><style>.cls-1{fill:#2b2b2b;}.cls-2{fill:#fff;}</style></defs><g id="Camada_2" data-name="Camada 2"><g id="Layer_1" data-name="Layer 1"><path class="cls-1" d="M45.24,49.93a4.44,4.44,0,0,1-4.36,4.36,4.78,4.78,0,0,1-3.52-1.68l-15-16H9.72V49.85A3.85,3.85,0,0,1,8.25,53,5.29,5.29,0,0,1,4.86,54.2a5.33,5.33,0,0,1-3.44-1.13A3.78,3.78,0,0,1,0,49.93V5.19A4.06,4.06,0,0,1,1.34,2.05,5,5,0,0,1,4.86.84H23.54A28.74,28.74,0,0,1,35.9,3.23a17.62,17.62,0,0,1,7.66,6.49,16.9,16.9,0,0,1,2.6,9.21,17,17,0,0,1-3.23,10.39,17.1,17.1,0,0,1-9.51,6.12L43.48,46A5.65,5.65,0,0,1,45.24,49.93ZM23.62,28.48q6.28,0,9.51-2.59a8.06,8.06,0,0,0,3.23-6.54,9,9,0,0,0-3.44-7.2Q29.49,9.3,23.62,9.3H9.72V28.48Z"/><path class="cls-1" d="M78.24,43.81A5.77,5.77,0,0,1,82,42.22a4,4,0,0,1,3,1.26,4.09,4.09,0,0,1,1.21,2.93A5,5,0,0,1,84.53,50a16.32,16.32,0,0,1-6.75,3.9A26.79,26.79,0,0,1,69.36,55,24.17,24.17,0,0,1,57.8,52.36,19.28,19.28,0,0,1,50,44.86a21.74,21.74,0,0,1-2.76-11,26.19,26.19,0,0,1,2.68-12.11,19.49,19.49,0,0,1,7.62-8.13,22.57,22.57,0,0,1,11.56-2.89q9.89,0,15.42,6T90.14,32.5a5.93,5.93,0,0,1-1,3.77c-.68.84-2.1,1.26-4.28,1.26H57a12.59,12.59,0,0,0,4.44,6.66,12.07,12.07,0,0,0,7.7,2.56A14.38,14.38,0,0,0,78.24,43.81ZM61.07,22a14,14,0,0,0-4.19,8H81.26A12.85,12.85,0,0,0,77.83,22C75.87,20,73,19,69.2,19A11.54,11.54,0,0,0,61.07,22Z"/><path class="cls-1" d="M134.62,12.94a4.68,4.68,0,0,1,1.34,3.4V51.61a18.2,18.2,0,0,1-2.76,10.17,17,17,0,0,1-7.58,6.37,26.18,26.18,0,0,1-10.77,2.14,28.6,28.6,0,0,1-9-1.3,19.21,19.21,0,0,1-7.17-4.4,4.81,4.81,0,0,1-1.59-3.43,4.16,4.16,0,0,1,1.39-3.1,4.45,4.45,0,0,1,3.22-1.34A5,5,0,0,1,105,58.06,13.42,13.42,0,0,0,109.58,61a17.23,17.23,0,0,0,5.27.71,13.42,13.42,0,0,0,8.34-2.56,8.79,8.79,0,0,0,3.39-7.49v-.76a20.36,20.36,0,0,1-6.07,3.1A20.88,20.88,0,0,1,114.1,55a20.3,20.3,0,0,1-10.64-2.76,18.53,18.53,0,0,1-7.12-7.79,25.88,25.88,0,0,1-2.52-11.73,24.42,24.42,0,0,1,2.6-11.44,19.33,19.33,0,0,1,7.25-7.79,20.43,20.43,0,0,1,10.76-2.81,22.4,22.4,0,0,1,6.29.93,19.07,19.07,0,0,1,5.86,2.84c.62-2,2.12-2.93,4.52-2.93A4.67,4.67,0,0,1,134.62,12.94ZM121.81,44.82a9.38,9.38,0,0,0,4.69-4.94v-14a11.17,11.17,0,0,0-4.73-4.9,13.57,13.57,0,0,0-6.67-1.81A10.61,10.61,0,0,0,106.6,23a14.7,14.7,0,0,0-3.22,9.84q0,6.19,3,10a9.7,9.7,0,0,0,8,3.77A16.17,16.17,0,0,0,121.81,44.82Z"/><path class="cls-1" d="M149.83,8.38a5.58,5.58,0,0,1-3.39,1.09A5.54,5.54,0,0,1,143,8.38a3.67,3.67,0,0,1-1.42-3.1V4.19A3.67,3.67,0,0,1,143,1.09a5.89,5.89,0,0,1,6.83,0,3.63,3.63,0,0,1,1.47,3.1V5.28A3.63,3.63,0,0,1,149.83,8.38Zm-6.7,4.27a5.63,5.63,0,0,1,6.66,0,3.49,3.49,0,0,1,1.42,2.93V50.1a3.57,3.57,0,0,1-1.42,3,5.63,5.63,0,0,1-6.66,0,3.53,3.53,0,0,1-1.47-3V15.67A3.55,3.55,0,0,1,143.13,12.65Z"/><path class="cls-1" d="M154.9,43.14a3.53,3.53,0,0,1,1.55-2.93A5.49,5.49,0,0,1,159.84,39a4.33,4.33,0,0,1,2.68.88,5.29,5.29,0,0,1,1.76,2.64C164.73,44,166,45,168,45.74a20.14,20.14,0,0,0,6.83,1.09,14.2,14.2,0,0,0,7.28-1.63q2.77-1.64,2.77-4.15a3.06,3.06,0,0,0-2.51-3.1,41.54,41.54,0,0,0-7.88-1.17,78.5,78.5,0,0,1-10.09-1.47A13.12,13.12,0,0,1,158,31.83q-2.64-2.59-2.64-7.7a11.16,11.16,0,0,1,2.34-7,15.2,15.2,0,0,1,6.62-4.69,26.89,26.89,0,0,1,9.89-1.68q15.24,0,18.76,9.13a4.32,4.32,0,0,1,.25,1.34,3.67,3.67,0,0,1-1.55,3.1,5.44,5.44,0,0,1-3.39,1.18,4.91,4.91,0,0,1-2.51-.59,3.9,3.9,0,0,1-1.59-2q-1.77-3.86-10-3.85a13.81,13.81,0,0,0-6.75,1.42,4.26,4.26,0,0,0-2.55,3.77A2.7,2.7,0,0,0,166.38,27a19.72,19.72,0,0,0,5.27,1,23.33,23.33,0,0,1,3.35.25,87.68,87.68,0,0,1,10.43,1.64,13.45,13.45,0,0,1,6.33,3.47q2.69,2.59,2.68,7.71A11.54,11.54,0,0,1,192,48.34a15.93,15.93,0,0,1-6.91,4.94A27.67,27.67,0,0,1,174.84,55a32.92,32.92,0,0,1-12.57-2.3,11.81,11.81,0,0,1-7.2-8.51A4.28,4.28,0,0,1,154.9,43.14Z"/><path class="cls-1" d="M221.25,45.49a4.07,4.07,0,0,1,3,1.21,4,4,0,0,1,1.22,2.9,3.81,3.81,0,0,1-.72,2.21,6,6,0,0,1-2.05,1.81,11.49,11.49,0,0,1-3.14,1.17,21.62,21.62,0,0,1-3.73.25q-13.49,0-13.49-15.75V19.52h-3.18a4.69,4.69,0,0,1-3.39-1.17,3.73,3.73,0,0,1-1.22-2.77,3.85,3.85,0,0,1,1.22-2.8,4.58,4.58,0,0,1,3.39-1.22h3.18V4.36a4,4,0,0,1,1.38-3.19A5,5,0,0,1,207,0a5.13,5.13,0,0,1,3.36,1.17,4,4,0,0,1,1.42,3.19v7.2h6.53a4.47,4.47,0,0,1,3.31,1.22,3.85,3.85,0,0,1,1.22,2.8,3.73,3.73,0,0,1-1.22,2.77,4.57,4.57,0,0,1-3.31,1.17h-6.53V39.29a15.57,15.57,0,0,0,.79,5.49,3.13,3.13,0,0,0,3.23,2,6.5,6.5,0,0,0,2.68-.59A6.31,6.31,0,0,1,221.25,45.49Z"/><path class="cls-1" d="M250.61,12.57a3.69,3.69,0,0,1,1.3,3.1,4,4,0,0,1-1.34,3.18A5.31,5.31,0,0,1,247,20c-3.4,0-5.85,1.2-7.33,3.6s-2.22,5.87-2.22,10.39V49.93A3.93,3.93,0,0,1,236.07,53a4.67,4.67,0,0,1-3.26,1.21A5.14,5.14,0,0,1,229.29,53a3.89,3.89,0,0,1-1.34-3.1V15.83a3.81,3.81,0,0,1,1.46-3.1,5.3,5.3,0,0,1,3.4-1.17A4.94,4.94,0,0,1,236,12.69a3.84,3.84,0,0,1,1.38,3.14v.51A11.23,11.23,0,0,1,247,11.56,5.85,5.85,0,0,1,250.61,12.57Z"/><path class="cls-1" d="M289.94,12.78a4,4,0,0,1,1.34,3.14V49.85A4.06,4.06,0,0,1,289.94,53a4.91,4.91,0,0,1-3.43,1.21,5.07,5.07,0,0,1-3.23-1,3.92,3.92,0,0,1-1.47-2.56A19,19,0,0,1,275.57,54,22.57,22.57,0,0,1,268.75,55a19.19,19.19,0,0,1-10.43-2.76,17.86,17.86,0,0,1-6.75-7.79,27.56,27.56,0,0,1-2.34-11.73,24.42,24.42,0,0,1,2.59-11.44,19.33,19.33,0,0,1,7.25-7.79,20.43,20.43,0,0,1,10.76-2.81,19.22,19.22,0,0,1,6.08,1.09,20.93,20.93,0,0,1,5.9,3.1,4,4,0,0,1,1.55-2.47,5.22,5.22,0,0,1,3.15-.88A4.91,4.91,0,0,1,289.94,12.78ZM277,44.9a9.91,9.91,0,0,0,4.73-4.77V25.64a10.8,10.8,0,0,0-4.65-4.74,13.57,13.57,0,0,0-6.57-1.72A10.61,10.61,0,0,0,262,23a14.7,14.7,0,0,0-3.22,9.84q0,6.19,3,10a9.71,9.71,0,0,0,8,3.77A15.79,15.79,0,0,0,277,44.9Z"/><path class="cls-2" d="M336.56,1.09A3.63,3.63,0,0,1,338,4.19V49.93a4,4,0,0,1-1.26,3.14,5.18,5.18,0,0,1-3.6,1.13c-2.91,0-4.41-1.34-4.53-4a17.76,17.76,0,0,1-5.94,3.56A19,19,0,0,1,316.25,55a19.9,19.9,0,0,1-10.77-2.85,18.82,18.82,0,0,1-7-8A26.75,26.75,0,0,1,296,32.42a23.81,23.81,0,0,1,2.6-11.23,19,19,0,0,1,7.29-7.7,20.73,20.73,0,0,1,10.72-2.77,18.11,18.11,0,0,1,6,1.13,20.92,20.92,0,0,1,5.87,3.23V4.19a3.69,3.69,0,0,1,1.38-3.14,5.3,5.3,0,0,1,3.31-1A5.52,5.52,0,0,1,336.56,1.09ZM324.12,44.57a9.66,9.66,0,0,0,4.52-5.45l-.08-12.9A11.05,11.05,0,0,0,324,21.07a12.9,12.9,0,0,0-6.75-1.89A10.69,10.69,0,0,0,308.79,23a14.07,14.07,0,0,0-3.27,9.55,16,16,0,0,0,3,10.1,9.57,9.57,0,0,0,8,3.9A15,15,0,0,0,324.12,44.57Z"/><path class="cls-2" d="M376.44,13.53a19.51,19.51,0,0,1,7.83,7.87A24.07,24.07,0,0,1,387,33.09a23.54,23.54,0,0,1-2.89,11.52,19.5,19.5,0,0,1-7.83,7.71,25.92,25.92,0,0,1-23.12,0,19.5,19.5,0,0,1-7.83-7.71,23.54,23.54,0,0,1-2.89-11.52,23.76,23.76,0,0,1,2.8-11.69,19.85,19.85,0,0,1,7.84-7.87,23.49,23.49,0,0,1,11.64-2.81A23.76,23.76,0,0,1,376.44,13.53ZM373.8,42.89a14,14,0,0,0,3.43-9.8A14.68,14.68,0,0,0,373.8,23a12.45,12.45,0,0,0-18.1,0,14.68,14.68,0,0,0-3.43,10.09,14,14,0,0,0,3.43,9.8,12.75,12.75,0,0,0,18.1,0Z"/><path class="cls-2" d="M417.53,19.94a14.13,14.13,0,0,0-5.28-1,11.18,11.18,0,0,0-8.88,3.86Q400,26.65,400,33q0,6.2,3.43,10a11.78,11.78,0,0,0,9.14,3.77,15.41,15.41,0,0,0,5.23-.92A12.08,12.08,0,0,0,422.3,43a5.62,5.62,0,0,1,3.94-1.93A3.86,3.86,0,0,1,430.18,45a4.78,4.78,0,0,1-1.43,3.35,19,19,0,0,1-7.28,5.07,24.71,24.71,0,0,1-9,1.63,23.87,23.87,0,0,1-11.6-2.72,19.3,19.3,0,0,1-7.75-7.71,23.37,23.37,0,0,1-2.76-11.52,24.44,24.44,0,0,1,2.72-11.77,19.13,19.13,0,0,1,7.66-7.83,23.17,23.17,0,0,1,11.48-2.77A23.52,23.52,0,0,1,421,12.27a19.08,19.08,0,0,1,7.17,5.24,4.88,4.88,0,0,1,1.34,3.1,3.84,3.84,0,0,1-1.26,2.93,4.16,4.16,0,0,1-2.93,1.17A4.36,4.36,0,0,1,421.88,23,11.28,11.28,0,0,0,417.53,19.94Z"/><path class="cls-2" d="M443.79,46.62a4.67,4.67,0,0,1,1.47,3.56,4.54,4.54,0,0,1-1.47,3.52,5.58,5.58,0,0,1-3.9,1.34A5.78,5.78,0,0,1,436,53.66a4.41,4.41,0,0,1-1.59-3.48A4.5,4.5,0,0,1,436,46.62a5.78,5.78,0,0,1,3.93-1.38A5.47,5.47,0,0,1,443.79,46.62Z"/><path class="cls-1" d="M47.34,86.78a4.77,4.77,0,0,0-3.54-1.6c-2.73,0-4.61,2.79-4.61,5.72,0,3.4,2.39,5.51,4.75,5.51,1.92,0,4.1-1.77,4.1-1.77l.46,1.56A7.92,7.92,0,0,1,43.61,98c-3.28,0-6.45-2.41-6.45-6.93,0-4.33,3-7.49,6.72-7.49a6.32,6.32,0,0,1,4.44,1.73Z"/><path class="cls-1" d="M62.65,90.69c0,4.1-2.77,7.35-6.38,7.35-3.86,0-6.06-3.19-6.06-7.09,0-4.08,2.72-7.33,6.34-7.33C60.62,83.62,62.65,86.64,62.65,90.69Zm-6.21,5.83c2.49,0,4.14-2.56,4.14-5.7s-1.65-5.7-4.14-5.7-4.16,2.55-4.16,5.7S54,96.52,56.44,96.52Z"/><path class="cls-1" d="M77.26,96.18l.13,1.58h-1L68.47,88.9l-.9-1.38v8.66l.21,1.58h-2v-12l-.27-1.94h1.29l7.75,8.78L75.53,94V85.81l-.28-1.94h2Z"/><path class="cls-1" d="M79.49,83.87h10.9v1.61H85.83v10.7L86,97.76H83.93V85.48H79.49Z"/><path class="cls-1" d="M100.25,97.76l-3.72-5.21c-.23,0-.53,0-1.77,0v3.61L95,97.76H92.86v-12l-.28-1.94h3.93c2.32,0,4.56,1.33,4.56,4.18a4.46,4.46,0,0,1-2.7,4l4.33,5.74ZM96.13,91a3,3,0,0,0,2.93-3,2.65,2.65,0,0,0-2.93-2.62H94.76V91Z"/><path class="cls-1" d="M108.23,83.87l1.28-.27,4.31,11.84,1.06,2.32h-2.3l-1.33-3.63h-5.18l-1.37,3.63h-1.84Zm-1.59,8.66h4.08L109,87.67l-.21-.82-.25.84Z"/><path class="cls-1" d="M114.18,83.87h10.89v1.61h-4.56v10.7l.21,1.58h-2.11V85.48h-4.43Z"/><path class="cls-1" d="M138.14,90.69c0,4.1-2.76,7.35-6.37,7.35-3.87,0-6.07-3.19-6.07-7.09,0-4.08,2.73-7.33,6.34-7.33C136.12,83.62,138.14,86.64,138.14,90.69Zm-6.21,5.83c2.5,0,4.14-2.56,4.14-5.7s-1.64-5.7-4.14-5.7-4.16,2.55-4.16,5.7S129.44,96.52,131.93,96.52Z"/><path class="cls-1" d="M140.44,94.66a5.36,5.36,0,0,0,3.63,1.86,2.18,2.18,0,0,0,2.26-2.3c0-2.79-6.06-2.9-6.06-6.63a4,4,0,0,1,4.08-4,6.46,6.46,0,0,1,3.48,1l-.55,1.54a5,5,0,0,0-3-1,1.92,1.92,0,0,0-2,1.9c0,3,6,2.78,6,6.92A3.93,3.93,0,0,1,144,98a5.07,5.07,0,0,1-3.78-1.56S140.44,94.66,140.44,94.66Z"/><path class="cls-1" d="M159.73,85.81l-.28-1.94h7.23v1.56h-5.05v4.44H166l-.42,1.56h-4V96.2h5.28l-.42,1.56h-6.76Z"/><path class="cls-1" d="M178.43,85.81l-.28-1.94h2.18V96.16h5.45l-.43,1.6h-6.92Z"/><path class="cls-1" d="M190.17,96.18l.21,1.58h-2.11v-12L188,83.87h2.18Z"/><path class="cls-1" d="M203.62,86.78a4.8,4.8,0,0,0-3.55-1.6c-2.73,0-4.61,2.79-4.61,5.72,0,3.4,2.39,5.51,4.76,5.51,1.92,0,4.09-1.77,4.09-1.77l.47,1.56a8,8,0,0,1-4.9,1.84c-3.28,0-6.44-2.41-6.44-6.93,0-4.33,3-7.49,6.71-7.49a6.32,6.32,0,0,1,4.44,1.73Z"/><path class="cls-1" d="M207.88,85.81l-.28-1.94h7.23v1.56h-5.05v4.44h4.41l-.42,1.56h-4V96.2h5.28l-.42,1.56h-6.76Z"/><path class="cls-1" d="M229.73,96.18l.13,1.58h-1L221,88.9,220,87.52v8.66l.21,1.58h-1.94v-12L218,83.87h1.29l7.75,8.78L228,94V85.81l-.28-1.94h2Z"/><path class="cls-1" d="M243,86.78a4.79,4.79,0,0,0-3.55-1.6c-2.72,0-4.6,2.79-4.6,5.72,0,3.4,2.38,5.51,4.75,5.51,1.92,0,4.1-1.77,4.1-1.77l.46,1.56a8,8,0,0,1-4.9,1.84c-3.27,0-6.44-2.41-6.44-6.93,0-4.33,3-7.49,6.72-7.49A6.29,6.29,0,0,1,244,85.35Zm-4.33,11.13h.61c.61.81,2.37,1.16,2.37,2.54a2.25,2.25,0,0,1-2.45,2.28,3.51,3.51,0,0,1-2-.66l.51-1a2.25,2.25,0,0,0,1.47.48c.66,0,1.21-.19,1.21-.78s-1.16-1-1.9-1.75Z"/><path class="cls-1" d="M250.21,83.87l1.28-.27,4.31,11.84,1.06,2.32h-2.3l-1.33-3.63h-5.18l-1.37,3.63h-1.84Zm-1.59,8.66h4.08L251,87.67l-.21-.82-.26.84Z"/><path class="cls-1" d="M258.29,94.66a5.36,5.36,0,0,0,3.63,1.86,2.18,2.18,0,0,0,2.26-2.3c0-2.79-6.06-2.9-6.06-6.63a4,4,0,0,1,4.08-4,6.43,6.43,0,0,1,3.48,1l-.55,1.54a5,5,0,0,0-3-1,1.92,1.92,0,0,0-2,1.9c0,3,5.95,2.78,5.95,6.92a3.93,3.93,0,0,1-4.2,4.1,5.07,5.07,0,0,1-3.78-1.56S258.29,94.66,258.29,94.66Z"/><path class="cls-1" d="M277.58,85.81l-.27-1.94h7.22v1.56h-5v4.44h4.41l-.42,1.56h-4V96.2h5.28l-.42,1.56h-6.76Z"/><path class="cls-1" d="M290.44,89.47l-.7-1.4v8.11l.21,1.58H288v-12l-.27-1.94h1.39l6.29,9,5.7-9h1.19V96.18l.21,1.58h-2.11V88l-.74,1.48-4.33,6.73Z"/><path class="cls-1" d="M310.66,83.87c2.33,0,4.56,1.33,4.56,4.18,0,2.41-2.23,4.52-5.27,4.52h-1v3.61l.21,1.58H307v-12l-.27-1.94ZM310.28,91a2.87,2.87,0,0,0,2.94-3,2.65,2.65,0,0,0-2.94-2.62h-1.37V91Z"/><path class="cls-1" d="M325.93,97.76l-3.72-5.21c-.23,0-.53,0-1.77,0v3.61l.21,1.58h-2.11v-12l-.28-1.94h3.93c2.32,0,4.56,1.33,4.56,4.18a4.46,4.46,0,0,1-2.7,4l4.33,5.74ZM321.81,91a3,3,0,0,0,2.94-3,2.66,2.66,0,0,0-2.94-2.62h-1.37V91Z"/><path class="cls-1" d="M331,85.81l-.28-1.94h7.23v1.56h-5v4.44h4.41l-.42,1.56h-4V96.2h5.28l-.42,1.56H331Z"/><path class="cls-1" d="M340.49,94.66a5.36,5.36,0,0,0,3.63,1.86,2.18,2.18,0,0,0,2.26-2.3c0-2.79-6.06-2.9-6.06-6.63a4,4,0,0,1,4.08-4,6.43,6.43,0,0,1,3.48,1l-.55,1.54a5,5,0,0,0-3-1,1.93,1.93,0,0,0-2,1.9c0,3,5.95,2.78,5.95,6.92a3.93,3.93,0,0,1-4.2,4.1,5.07,5.07,0,0,1-3.78-1.56S340.49,94.66,340.49,94.66Z"/><path class="cls-1" d="M354.59,83.87l1.29-.27,4.31,11.84,1.06,2.32H359l-1.33-3.63h-5.18l-1.37,3.63h-1.84ZM353,92.53h4.08l-1.76-4.86-.21-.82-.25.84Z"/><path class="cls-1" d="M371.08,97.76l-3.71-5.21c-.24,0-.53,0-1.78,0v3.61l.21,1.58h-2.11v-12l-.27-1.94h3.93c2.32,0,4.56,1.33,4.56,4.18a4.47,4.47,0,0,1-2.71,4l4.33,5.74ZM367,91a3,3,0,0,0,2.93-3A2.65,2.65,0,0,0,367,85.43h-1.38V91Z"/><path class="cls-1" d="M378,96.18l.21,1.58h-2.11v-12l-.28-1.94H378Z"/><path class="cls-1" d="M385.65,83.87l1.29-.27,4.31,11.84,1.05,2.32H390l-1.33-3.63H383.5l-1.38,3.63h-1.83Zm-1.58,8.66h4.07l-1.75-4.86-.21-.82-.26.84Z"/><path class="cls-1" d="M396.65,96.18l.21,1.58h-2.11v-12l-.28-1.94h2.18Z"/><path class="cls-1" d="M400.32,94.66A5.36,5.36,0,0,0,404,96.52a2.18,2.18,0,0,0,2.26-2.3c0-2.79-6.06-2.9-6.06-6.63a4,4,0,0,1,4.08-4,6.43,6.43,0,0,1,3.48,1l-.55,1.54a5,5,0,0,0-3-1,1.92,1.92,0,0,0-2,1.9c0,3,5.95,2.78,5.95,6.92a3.93,3.93,0,0,1-4.2,4.1,5.07,5.07,0,0,1-3.78-1.56S400.32,94.66,400.32,94.66Z"/></g></g></svg>